HIERARCHY
ROOT Hips
{
	OFFSET -3.958830 18.904000 13.208200
	CHANNELS 6 Xposition Yposition Zposition Zrotation Yrotation Xrotation 
	JOINT LHipJoint
	{
		OFFSET 0.000000 0.000000 0.000000
		CHANNELS 3 Zrotation Yrotation Xrotation
		JOINT LeftUpLeg
		{
			OFFSET 1.800000 -1.400000 0.085000
			CHANNELS 3 Zrotation Yrotation Xrotation
			JOINT LeftLeg
			{
				OFFSET 2.215000 -6.000000 0.000000
				CHANNELS 3 Zrotation Yrotation Xrotation
				JOINT LeftFoot
				{
					OFFSET 2.500000 -6.900000 0.000000
					CHANNELS 3 Zrotation Yrotation Xrotation
					JOINT LeftToeBase
					{
						OFFSET 0.200000 -0.500000 1.950000
						CHANNELS 3 Zrotation Yrotation Xrotation
						End Site
						{
							OFFSET 0.000000 0.000000 0.000000
						}
					}
				}
			}
		}
	}
	JOINT RHipJoint
	{
		OFFSET 0.000000 0.000000 0.000000
		CHANNELS 3 Zrotation Yrotation Xrotation
		JOINT RightUpLeg
		{
			OFFSET -1.800000 -1.400000 0.085000
			CHANNELS 3 Zrotation Yrotation Xrotation
			JOINT RightLeg
			{
				OFFSET -2.215000 -6.000000 0.000000
				CHANNELS 3 Zrotation Yrotation Xrotation
				JOINT RightFoot
				{
					OFFSET -2.500000 -6.900000 0.000000
					CHANNELS 3 Zrotation Yrotation Xrotation
					JOINT RightToeBase
					{
						OFFSET -0.200000 -0.500000 1.950000
						CHANNELS 3 Zrotation Yrotation Xrotation
						End Site
						{
							OFFSET 0.000000 0.000000 0.000000
						}
					}
				}
			}
		}
	}
	JOINT LowerBack
	{
		OFFSET 0.000000 0.000000 0.000000
		CHANNELS 3 Zrotation Yrotation Xrotation
		JOINT Spine
		{
			OFFSET -0.087000 1.940000 -0.288900
			CHANNELS 3 Zrotation Yrotation Xrotation
			JOINT Spine1
			{
				OFFSET 0.000000 1.950000 0.060000
				CHANNELS 3 Zrotation Yrotation Xrotation
				JOINT Neck
				{
					OFFSET 0.000000 0.000000 0.000000
					CHANNELS 3 Zrotation Yrotation Xrotation
					JOINT Neck1
					{
						OFFSET 0.000000 1.600000 0.340000
						CHANNELS 3 Zrotation Yrotation Xrotation
						JOINT Head
						{
							OFFSET 0.000000 1.667000 -0.240000
							CHANNELS 3 Zrotation Yrotation Xrotation
							End Site
							{
								OFFSET 0.000000 0.000000 0.000000
							}
						}
					}
				}
				JOINT LeftShoulder
				{
					OFFSET 0.000000 0.000000 0.000000
					CHANNELS 3 Zrotation Yrotation Xrotation
					JOINT LeftArm
					{
						OFFSET 2.700000 1.550000 -0.730000
						CHANNELS 3 Zrotation Yrotation Xrotation
						JOINT LeftForeArm
						{
							OFFSET 5.450000 0.000000 0.000000
							CHANNELS 3 Zrotation Yrotation Xrotation
							JOINT LeftHand
							{
								OFFSET 3.450000 0.000000 0.000000
								CHANNELS 3 Zrotation Yrotation Xrotation
								JOINT LeftHandIndex1
								{
									OFFSET 0.750000 0.000000 0.000000
									CHANNELS 3 Zrotation Yrotation Xrotation
									End Site
									{
										OFFSET 0.000000 0.000000 0.000000
									}
								}
							}
						}
					}
				}
				JOINT RightShoulder
				{
					OFFSET 0.000000 0.000000 0.000000
					CHANNELS 3 Zrotation Yrotation Xrotation
					JOINT RightArm
					{
						OFFSET -2.700000 1.550000 -0.730000
						CHANNELS 3 Zrotation Yrotation Xrotation
						JOINT RightForeArm
						{
							OFFSET -5.450000 0.000000 0.000000
							CHANNELS 3 Zrotation Yrotation Xrotation
							JOINT RightHand
							{
								OFFSET -3.450000 0.000000 0.000000
								CHANNELS 3 Zrotation Yrotation Xrotation
								JOINT RightHandIndex1
								{
									OFFSET -0.750000 0.000000 0.000000
									CHANNELS 3 Zrotation Yrotation Xrotation
									End Site
									{
										OFFSET 0.000000 0.000000 0.000000
									}
								}
							}
						}
					}
				}
			}
		}
	}
}
MOTION
Frames: 12
Frame Time: 0.016667
-1.341890 15.948320 -0.724220 -7.062700 -25.654743 -8.679396 -16.467039 11.504057 6.190339 37.471479 -4.824287 -27.283684 -35.479762 33.935805 47.440563 1.197736 14.198712 -0.260759 0.584690 0.012050 0.737930 17.633672 -7.914016 1.952384 -19.981584 2.510468 -31.773554 7.789464 -12.919820 44.860119 -0.807045 -7.102557 1.988492 0.101060 -0.041790 -0.038590 -0.863938 -4.926608 -9.265964 -8.665993 2.055874 29.072717 14.646464 0.295051 7.442234 1.980691 11.027612 -11.544272 18.072958 -14.326357 46.219472 -2.639450 -5.140310 -13.816750 -15.641861 -9.960591 6.167398 -20.160574 7.398937 -2.610135 -18.052842 -3.421689 -2.121920 -3.594805 2.546486 0.983580 -0.098980 0.000550 0.080170 13.175875 5.252816 5.223775 25.864096 -12.545847 -16.778666 -14.107325 54.462811 -7.402173 1.513085 -1.255438 -0.452320 0.395400 -0.065820 -0.580690 
-1.141460 16.107200 -0.696720 -6.255284 -26.800634 -10.521879 -16.169661 12.297193 5.320429 27.496693 -4.798402 -27.617577 -19.958875 28.777013 57.382318 1.188056 14.183357 -0.261151 0.528030 -0.062020 0.671850 17.664164 -8.919623 1.809395 -19.979035 2.609117 -27.416157 6.478611 -9.881093 37.888072 -0.494464 -5.729094 2.464489 0.017750 -0.033990 -0.016590 -1.090815 -4.255410 -8.724366 -8.056133 3.551780 29.144509 14.749123 2.209078 6.633861 1.825048 10.932883 -13.022396 20.234115 -15.701129 46.874258 -2.483180 -6.706070 -9.329430 -12.239634 -9.494084 7.093390 -24.593732 13.464698 -5.930060 -24.480779 -4.031928 -2.858622 -3.530645 2.623098 0.932970 -0.092620 -0.018150 0.088110 9.747852 6.276108 5.791680 26.621466 -9.019072 -17.626223 -13.282628 64.084105 -9.616071 1.540331 -1.262974 -0.400520 0.321560 -0.059650 -0.537710 
-0.891020 16.302740 -0.676880 -4.386938 -28.326352 -14.093813 -15.832410 13.392973 4.130377 15.966736 -3.998991 -24.935238 -6.137808 20.691531 62.399940 1.124679 12.835133 0.178274 0.519740 -0.043830 0.639860 17.681753 -10.057767 1.808920 -20.872275 1.860433 -22.416157 5.084367 -7.407636 29.735076 -0.284763 -4.496148 2.916231 -0.068600 -0.088010 0.023170 -1.299342 -3.724828 -8.101637 -7.863076 5.557978 30.843779 14.901207 4.728478 5.785898 1.382730 9.621367 -14.537858 20.252621 -14.949957 48.333210 -3.601370 -6.044140 -4.788980 -7.850489 -7.888066 7.795900 -30.414618 22.700222 -12.357920 -31.422424 -13.988121 -1.265450 -3.291429 2.825557 0.841400 -0.116760 0.028920 0.122280 5.699771 7.531161 6.682431 26.799210 -4.098511 -17.445661 -17.368246 71.628405 -14.589450 1.635253 -1.257188 -0.262500 0.191130 -0.128990 -0.456990 
-0.612190 16.493700 -0.635510 -3.124165 -30.701458 -17.906234 -15.548900 14.157603 3.230521 6.043363 -1.668614 -21.394628 6.135981 12.637324 63.706354 0.919837 11.423052 0.686175 0.485190 -0.078090 0.555710 17.727488 -10.904706 2.026086 -21.559384 1.262908 -17.143072 4.897025 -6.156049 21.703441 -0.187537 -3.826253 3.224597 -0.098470 -0.001900 0.032720 -1.594298 -3.146635 -7.721821 -3.471482 7.078091 31.463700 12.785459 7.035011 8.851731 1.675452 7.407541 -14.862488 16.298469 -11.968513 51.968403 -2.589230 -6.073650 -3.684320 -6.723347 -8.441212 8.654375 -32.728385 26.896517 -15.362204 -39.905628 -14.836188 -1.626385 -3.208819 2.836242 0.838950 -0.096650 0.014390 0.168940 3.983271 10.909717 6.706617 22.586490 1.544713 -16.988710 -26.179631 82.140908 -25.376861 1.581109 -1.009817 -0.267890 0.241820 -0.099700 -0.406450 
-0.326070 16.685390 -0.604700 -3.312547 -32.063519 -20.413719 -15.285402 14.283807 2.766614 -1.359063 0.930304 -18.695631 17.356326 5.242244 61.350100 0.886469 10.221912 1.087827 0.576680 0.107730 0.532940 17.843896 -11.358255 2.569414 -22.503124 1.394408 -12.174298 8.619018 -6.396619 15.915918 -0.300222 -4.034938 3.200507 -0.054300 -0.034370 0.047950 -2.260681 -2.139050 -7.648973 4.079538 7.299148 33.237757 9.157597 8.712094 12.001923 2.514729 4.912503 -14.814815 11.999397 -8.580580 54.702662 -1.571640 -5.012050 -6.364420 -4.884568 -8.682993 9.190159 -35.306090 27.884995 -17.324624 -46.582542 -11.554707 -3.450302 -3.072360 2.873845 0.799100 -0.136620 0.087940 0.233210 0.445665 13.934206 6.037993 20.746942 8.463455 -17.556307 -49.822471 86.622376 -46.383694 1.398183 0.063943 -0.159900 0.230480 -0.167830 -0.324390 
-0.051760 16.882250 -0.603240 -3.149286 -33.590033 -23.313685 -15.071742 14.056660 2.662858 -8.090722 3.831522 -16.243546 28.633750 -0.674716 56.417747 0.954109 9.980407 1.231106 0.556050 0.102600 0.446730 17.995808 -11.606318 3.013955 -23.663222 2.697290 -7.985829 13.524078 -7.628927 16.133898 -0.424583 -4.958364 2.898077 -0.037930 0.083300 0.074940 -3.079948 -1.051415 -7.601277 10.477431 6.798941 35.574481 6.092248 9.161434 15.675929 3.275792 0.796057 -13.737883 5.330357 -2.063785 53.930931 -1.016540 -2.430050 -6.811890 -1.163362 -6.480363 9.321935 -40.735045 29.250726 -19.798227 -51.070068 -13.761702 -2.887713 -3.016360 2.916720 0.754190 -0.075280 0.029280 0.263870 -4.576803 16.006027 4.113941 19.497351 22.363961 -13.773121 -77.252209 83.064901 -62.871940 0.893643 2.767728 -0.173220 0.267730 -0.116900 -0.280340 
0.227540 17.074050 -0.612860 -3.572604 -35.367095 -24.770486 -14.764212 13.235642 2.686707 -14.026800 6.808009 -15.841338 40.305028 -4.507382 48.591324 0.962660 10.250780 1.176515 0.497770 0.009310 0.343070 18.285949 -11.939307 3.650993 -24.008399 5.542392 -6.586795 19.733224 -8.637802 16.455418 -0.539782 -5.909099 2.553003 -0.019990 0.248810 0.134470 -4.690694 1.452040 -7.460236 20.774081 5.195284 36.016056 0.321422 8.715736 21.647279 4.674522 -4.400202 -13.203120 -2.630693 5.207652 50.191107 -1.699860 0.382530 -8.211350 3.592697 -4.178028 10.086446 -48.061137 30.260986 -22.018401 -51.633328 -28.070836 3.820588 -2.895395 3.185850 0.740900 0.035510 -0.089350 0.248190 -11.354794 18.046360 2.700073 18.238955 36.524751 -5.747542 -89.419770 70.638297 -64.851802 1.211870 1.590755 -0.246610 0.311830 0.021240 -0.283570 
0.441510 17.288810 -0.597670 -2.787139 -35.953929 -25.278495 -14.590554 12.206307 2.606522 -20.427591 10.147321 -17.199205 50.513477 -4.303797 37.686307 0.806200 10.036431 1.217456 0.466070 -0.022870 0.271160 18.523864 -12.040226 4.373461 -25.093503 10.725670 -5.319689 28.031981 -9.304357 16.514351 -0.782627 -6.919783 2.202053 0.019240 0.310730 0.071140 -6.256718 4.183714 -7.454102 31.325464 6.458997 33.734757 -4.242154 11.157380 28.322247 6.019045 -9.008018 -14.967198 -11.036327 8.640578 52.215057 0.850710 -1.073250 -12.073950 7.373843 -7.143346 13.510712 -53.308470 28.327087 -21.496967 -53.765157 -45.159730 12.897819 -2.390569 3.599874 0.839260 0.015900 -0.131600 0.216850 -16.486109 24.140724 0.040366 18.257929 41.112818 -6.970405 -87.276381 66.714907 -59.414268 2.370684 -0.222276 -0.352550 0.448700 0.129300 -0.309050 
0.673090 17.464120 -0.595820 -3.326579 -29.643564 -23.577154 -14.369443 10.342837 2.912079 -29.178162 10.555367 -17.895025 59.155924 -0.758333 21.199997 0.563285 9.207330 1.558289 0.415880 -0.039420 0.122210 19.020409 -11.721249 4.936888 -27.040315 16.513568 -3.618984 38.680339 -9.405822 14.531567 -1.057414 -8.118308 1.807902 0.126730 0.523200 0.002590 -7.598674 6.992951 -7.979821 40.081890 7.276653 29.857218 -6.952830 10.534940 33.335826 7.291984 -12.877362 -14.384046 -17.017204 10.601971 49.095119 1.736910 -3.754460 -11.219400 9.739035 -9.566694 15.575961 -52.426028 22.195283 -17.090195 -53.033456 -59.141396 20.818620 -1.844414 4.421101 0.729960 0.128090 -0.305380 0.266710 -19.231159 26.768906 -5.616181 19.665925 47.432584 -3.540442 -78.154276 62.831454 -48.900091 3.463937 -1.170513 -0.472340 0.612480 0.214090 -0.256250 
0.922600 17.624130 -0.650870 -2.551638 -25.849892 -22.453198 -14.248790 8.804163 3.066596 -36.685152 11.154955 -18.800996 60.311708 4.591854 8.712030 0.380017 8.291867 1.864779 0.540660 0.175450 0.105400 19.392507 -11.019447 5.864670 -29.088365 23.390077 -2.433978 50.341450 -5.312380 7.394114 -1.394188 -8.652537 1.633829 0.276160 0.566940 0.019540 -8.506612 8.992577 -8.937401 45.813553 8.785247 29.473855 -7.927404 10.508750 37.019828 9.561223 -15.915988 -14.772649 -21.478863 10.911234 47.116652 0.406940 -5.600050 -12.501600 8.794246 -13.162584 17.113834 -50.866752 16.202573 -13.349536 -54.262211 -66.412110 24.593774 -1.671655 4.895943 0.620380 0.179190 -0.325430 0.345250 -20.794354 29.259504 -10.086334 19.718801 52.052024 -2.508991 -72.314242 59.655381 -42.524645 4.811188 -1.511492 -0.418250 0.654540 0.167760 -0.186410 
1.174070 17.737680 -0.719960 -0.618199 -29.672871 -20.727084 -14.521578 8.963480 2.661915 -43.024469 11.508773 -27.759715 60.601968 7.501943 4.631551 0.258119 8.166765 1.868781 0.604830 0.266370 0.120670 19.249120 -9.850905 6.376372 -28.938356 31.935369 -3.919972 56.819159 0.106945 3.961697 -1.530523 -8.498851 1.673285 0.365410 0.571830 0.004730 -8.528898 8.322793 -8.764783 48.189595 6.048429 31.341924 -22.819355 8.909777 48.112559 12.888608 -13.021666 -24.329319 -29.022651 11.886516 39.141490 0.537160 -8.098500 -13.857940 7.036166 2.062498 8.115115 -48.738841 13.031900 -8.066690 -63.430397 -69.500237 32.283080 -1.371877 5.148441 0.623830 0.173340 -0.322450 0.360600 -25.598166 12.996042 26.349888 -83.841205 47.904844 -160.090373 74.312470 68.140589 135.477903 7.860021 1.287455 -0.430370 0.719060 0.167400 -0.179110 
1.473400 17.773960 -0.852460 2.425040 -29.403257 -19.104292 -14.533961 8.595133 2.843722 -53.505532 7.498860 -38.737705 61.872429 5.388053 5.618252 0.207051 8.097481 1.826051 0.639280 0.346910 0.102090 19.292349 -9.439747 6.640869 -30.995750 36.253528 -7.763803 60.566836 2.767566 3.509865 -1.593111 -8.285946 1.718302 0.400850 0.520260 -0.032300 -8.568787 8.623138 -8.962631 48.605535 7.404573 34.560430 -24.419210 11.573437 47.585638 13.729288 -13.283220 -24.323014 -30.385578 10.751890 39.638735 2.461120 -10.803180 -17.585900 3.665279 -0.067172 8.907864 -46.835083 11.448108 -2.219489 -88.298413 -79.919572 52.225941 -2.438497 4.046034 0.668760 0.088740 -0.268700 0.361840 -24.141938 13.589080 23.991510 -86.115062 48.610592 -155.886946 73.244546 68.339933 134.051893 5.642141 2.857198 -0.413480 0.761410 0.164830 -0.153150 
